<svg width="20" height="22" viewBox="0 0 20 22" fill="none" xmlns="http://www.w3.org/2000/svg">
<path d="M0.747774 7.19106C0.710312 6.61448 1.16787 6.12622 1.74567 6.12622H18.2543C18.8321 6.12622 19.2897 6.61448 19.2522 7.19106L18.45 19.5376C18.4158 20.0636 17.9792 20.4728 17.4521 20.4728H2.54786C2.02075 20.4728 1.58414 20.0636 1.54997 19.5376L0.747774 7.19106Z" stroke="#221D1D" stroke-width="1.2" stroke-linejoin="round"/>
<path d="M14.2922 10.7251L14.2922 6.43286C14.2922 6.43286 14.2922 6.43286 14.2922 6.43286C14.2922 6.43286 14.2922 1.52739 10 1.52739C5.70777 1.52739 5.70777 6.4328 5.70777 6.4328C5.70777 6.4328 5.70777 6.4328 5.70777 6.4328L5.70777 10.7251" stroke="#221D1D" stroke-width="1.2" stroke-linecap="round"/>
</svg>
