<svg width="28" height="22" viewBox="0 0 28 22" fill="none" xmlns="http://www.w3.org/2000/svg">
<path d="M18.8431 3.37109H2.00659V17.2046H18.8431V3.37109Z" stroke="#221D1D"/>
<path d="M18.833 5.97846C18.833 5.67969 19.0752 5.4375 19.374 5.4375H22.4547C22.6143 5.4375 22.7657 5.50799 22.8685 5.63013L26.8645 10.3781C26.9464 10.4752 26.9913 10.5981 26.9917 10.7251L27.0066 16.6646C27.0072 16.9639 26.7649 17.2069 26.4656 17.2069H19.374C19.0752 17.2069 18.833 16.9647 18.833 16.666V5.97846Z" stroke="#221D1D"/>
<path d="M6.50469 20.38C7.81019 20.38 8.8685 19.3217 8.8685 18.0162C8.8685 16.7107 7.81019 15.6523 6.50469 15.6523C5.19919 15.6523 4.14087 16.7107 4.14087 18.0162C4.14087 19.3217 5.19919 20.38 6.50469 20.38Z" fill="white" stroke="#221D1D"/>
<path d="M22.9216 20.38C24.2271 20.38 25.2854 19.3217 25.2854 18.0162C25.2854 16.7107 24.2271 15.6523 22.9216 15.6523C21.6161 15.6523 20.5577 16.7107 20.5577 18.0162C20.5577 19.3217 21.6161 20.38 22.9216 20.38Z" fill="white" stroke="#221D1D"/>
<path d="M24.9297 7.75586H22.792C22.0451 7.75586 21.4396 8.36137 21.4396 9.10829V9.96785C21.4396 10.7148 22.0451 11.3203 22.792 11.3203H26.4307" stroke="#221D1D"/>
</svg>
